nColumns=19
nRows=57
DataType=double
version=3
OpenSimVersion=4.1
endheader
time	ground_force_calcn_r_vx	ground_force_calcn_r_vy	ground_force_calcn_r_vz	ground_force_calcn_r_px	ground_force_calcn_r_py	ground_force_calcn_r_pz	ground_force_calcn_r_mx	ground_force_calcn_r_my	ground_force_calcn_r_mz	ground_force_calcn_l_vx	ground_force_calcn_l_vy	ground_force_calcn_l_vz	ground_force_calcn_l_px	ground_force_calcn_l_py	ground_force_calcn_l_pz	ground_force_calcn_l_mx	ground_force_calcn_l_my	ground_force_calcn_l_mz
4.05	0	0	0	0	0	0	0	0	0	-125.288	1630.45	71.8934	0.79798	0	-0.439898	0.342826	-4.4614	-0.196721
4.05833	0	0	0	0	0	0	0	0	0	-55.8234	1620.95	57.0653	0.761178	0	-0.443265	0.130521	-3.78993	-0.133424
4.06667	0	0	0	0	0	0	0	0	0	7.55815	1580.62	43.5884	0.726368	0	-0.44413	-0.0130888	-2.73724	-0.0754843
4.075	0	0	0	0	0	0	0	0	0	62.9116	1508.38	36.0878	0.693673	0	-0.442311	-0.0622785	-1.4932	-0.0357246
4.08333	0	0	0	0	0	0	0	0	0	116.633	1397.16	27.5706	0.659891	0	-0.440496	-0.0188911	-0.226298	-0.0044656
4.09167	0	0	0	0	0	0	0	0	0	167.207	1245.31	13.3469	0.622862	0	-0.440418	0.124538	0.927525	0.00994098
4.1	0	0	0	0	0	0	0	0	0	202.361	1061.28	-2.3513	0.585829	0	-0.440728	0.352305	1.84766	-0.00409354
4.10833	0	0	0	0	0	0	0	0	0	212.704	858.329	-13.663	0.554161	0	-0.439094	0.606866	2.4489	-0.0389819
4.11667	0	0	0	0	0	0	0	0	0	204.07	651.25	-20.4992	0.528515	0	-0.43499	0.842183	2.68766	-0.0845989
4.125	0	0	0	0	0	0	0	0	0	183.686	455.247	-25.9802	0.505265	0	-0.430045	1.02625	2.54346	-0.145151
4.13333	0	0	0	0	0	0	0	0	0	149.139	285.45	-30.1429	0.480159	0	-0.426909	1.073	2.05372	-0.216868
4.14167	0	0	0	0	0	0	0	0	0	101.48	156.84	-29.8	0.448323	0	-0.426328	0.883303	1.36517	-0.259387
4.15	0	0	0	0	0	0	0	0	0	55.3431	76.1604	-23.6583	0.403197	0	-0.418834	0.478372	0.658311	-0.204497
4.15833	0	0	0	0	0	0	0	0	0	26.3894	36.7174	-14.7401	0.365477	0	-0.370186	0.000883341	0.00122905	-0.0004934
4.16667	0	0	0	0	0	0	0	0	0	12.8263	20.5764	-7.26908	0.402261	0	-0.280532	-0.437011	-0.701068	0.247668
4.175	0	0	0	0	0	0	0	0	0	5.03949	11.9588	-2.97274	0.50551	0	-0.202122	-0.667422	-1.5838	0.393705
4.18333	0	0	0	0	0	0	0	0	0	0	0	0	0	0	0	0	0	0
4.19167	0	0	0	0	0	0	0	0	0	0	0	0	0	0	0	0	0	0
4.2	0	0	0	0	0	0	0	0	0	0	0	0	0	0	0	0	0	0
4.20833	0	0	0	0	0	0	0	0	0	0	0	0	0	0	0	0	0	0
4.21667	0	0	0	0	0	0	0	0	0	0	0	0	0	0	0	0	0	0
4.225	0	0	0	0	0	0	0	0	0	0	0	0	0	0	0	0	0	0
4.23333	-1.76388	11.5969	0.022728	0.505818	0	-0.131498	-0.0917674	0.603338	0.00118244	0	0	0	0	0	0	0	0	0
4.24167	-7.22893	25.2503	-2.66464	0.775125	0	-0.252177	-0.324943	1.13501	-0.119777	0	0	0	0	0	0	0	0	0
4.25	-26.4371	63.31	-7.10307	0.891077	0	-0.32718	-0.464958	1.11345	-0.124924	0	0	0	0	0	0	0	0	0
4.25833	-62.6301	159.63	-11.457	0.936744	0	-0.356921	-0.246125	0.627319	-0.0450241	0	0	0	0	0	0	0	0	0
4.26667	-106.295	358.568	-11.3964	0.958402	0	-0.363861	0.13545	-0.45692	0.0145223	0	0	0	0	0	0	0	0	0
4.275	-139.583	659.999	-2.93204	0.965034	0	-0.362776	0.422061	-1.99566	0.00886567	0	0	0	0	0	0	0	0	0
4.28333	-155.801	967.602	11.79	0.960403	0	-0.359549	0.563013	-3.4966	-0.0426052	0	0	0	0	0	0	0	0	0
4.29167	-172.041	1171.23	22.0694	0.948879	0	-0.356644	0.650944	-4.43155	-0.083503	0	0	0	0	0	0	0	0	0
4.3	-202.386	1274.8	17.3989	0.932282	0	-0.355444	0.713239	-4.49257	-0.0613165	0	0	0	0	0	0	0	0	0
4.30833	-230.511	1354.48	0.299993	0.909964	0	-0.355733	0.634153	-3.72627	-0.000825303	0	0	0	0	0	0	0	0	0
4.31667	-231.22	1454.99	-15.0379	0.88197	0	-0.355038	0.388704	-2.44599	0.0252802	0	0	0	0	0	0	0	0	0
4.325	-200.877	1566.38	-18.7223	0.850842	0	-0.352213	0.131132	-1.02253	0.0122218	0	0	0	0	0	0	0	0	0
4.33333	-149.653	1654.69	-14.5926	0.819292	0	-0.349095	-0.0194763	0.215347	-0.00189913	0	0	0	0	0	0	0	0	0
4.34167	-84.8182	1695.13	-11.6554	0.787431	0	-0.347426	-0.0516736	1.03272	-0.00710079	0	0	0	0	0	0	0	0	0
4.35	-12.7002	1684.28	-11.5519	0.754211	0	-0.346847	-0.00982617	1.30313	-0.00893771	0	0	0	0	0	0	0	0	0
4.35833	59.2343	1631.72	-8.92627	0.719341	0	-0.346094	0.0364439	1.00392	-0.00549188	0	0	0	0	0	0	0	0	0
4.36667	125.682	1544.41	-0.640944	0.683548	0	-0.344965	0.01864	0.229053	-9.5059e-05	0	0	0	0	0	0	0	0	0
4.375	182.835	1423.14	10.7581	0.648064	0	-0.344338	-0.104283	-0.811717	-0.00613613	0	0	0	0	0	0	0	0	0
4.38333	224.812	1268.85	21.5192	0.613811	0	-0.344729	-0.325851	-1.83911	-0.0311907	0	0	0	0	0	0	0	0	0
4.39167	247.612	1087.71	30.0117	0.581149	0	-0.345557	-0.588436	-2.58489	-0.0713212	0	0	0	0	0	0	0	0	0
4.4	251.978	889.07	35.5566	0.550222	0	-0.345843	-0.811993	-2.86501	-0.11458	0	0	0	0	0	0	0	0	0
4.40833	239.417	683.405	37.1025	0.520463	0	-0.345027	-0.921124	-2.6293	-0.142747	0	0	0	0	0	0	0	0	0
4.41667	209.757	486.512	33.9529	0.490727	0	-0.342946	-0.857987	-1.99002	-0.138881	0	0	0	0	0	0	0	0	0
4.425	165.489	316.404	26.921	0.460205	0	-0.339415	-0.622352	-1.18989	-0.101241	0	0	0	0	0	0	0	0	0
4.43333	114.481	185.19	18.3661	0.430335	0	-0.332994	-0.305102	-0.49355	-0.0489475	0	0	0	0	0	0	0	0	0
4.44167	67.2448	96.6621	11.0031	0.409867	0	-0.318212	-0.0519691	-0.0747038	-0.00850355	0	0	0	0	0	0	0	0	0
4.45	32.3693	45.9083	6.37737	0.428319	0	-0.281872	0.0165465	0.0234674	0.00325998	0	0	0	0	0	0	0	0	0
4.45833	12.4014	21.3932	4.28958	0.542457	0	-0.20843	-0.117354	-0.202443	-0.0405921	0	0	0	0	0	0	0	0	0
4.46667	3.4777	10.8121	3.61581	0.719872	0	-0.10566	-0.252889	-0.786229	-0.262932	0	0	0	0	0	0	0	0	0
4.475	0	0	0	0	0	0	0	0	0	0	0	0	0	0	0	0	0	0
4.48333	0	0	0	0	0	0	0	0	0	0	0	0	0	0	0	0	0	0
4.49167	0	0	0	0	0	0	0	0	0	0	0	0	0	0	0	0	0	0
4.5	0	0	0	0	0	0	0	0	0	0	0	0	0	0	0	0	0	0
4.50833	0	0	0	0	0	0	0	0	0	0	0	0	0	0	0	0	0	0
4.51667	0	0	0	0	0	0	0	0	0	0	0	0	0	0	0	0	0	0
